<svg width="1312" height="643" viewBox="0 0 1312 643" fill="none" xmlns="http://www.w3.org/2000/svg">
<g clip-path="url(#clip0_1403_29020)">
<rect width="1312" height="643" rx="60" fill="#FFD3AB"/>
<g opacity="0.7" clip-path="url(#clip1_1403_29020)">
<g opacity="0.06">
<path d="M191.94 19.35C232.829 19.1949 273.694 17.8108 314.499 15.2098C322.935 14.6729 322.994 1.46487 314.499 2.01371C273.694 4.61475 232.829 5.99879 191.94 6.15389C183.445 6.18969 183.433 19.3858 191.94 19.35Z" fill="#8B5000"/>
<path d="M18.2198 6.22573C65.647 4.12581 113.062 6.44051 160.036 13.4323C168.352 14.6731 171.932 1.95431 163.544 0.701513C115.377 -6.46924 66.8759 -9.12993 18.2198 -6.98229C9.7605 -6.61241 9.71277 6.59561 18.2198 6.21381V6.22573Z" fill="#8B5000"/>
<path d="M77.6258 15.1621C61.9241 15.0189 49.1218 27.9644 52.7012 44.0956C56.6504 61.8614 78.8786 72.7667 95.2484 74.974C112.835 77.3483 128.43 69.8196 131.114 50.9323C134.133 29.6945 119.29 18.3239 100.439 13.8735C92.182 11.9287 88.6504 24.6475 96.9307 26.6042C105.903 28.7161 116.081 31.6631 118.061 42.0434C120.674 55.7406 109.471 63.5318 97.0262 61.8375C88.5191 60.6802 80.7637 57.3752 74.0702 52.018C65.587 45.2291 59.6452 28.1911 77.6138 28.3581C86.109 28.4297 86.1209 15.2336 77.6138 15.1621H77.6258Z" fill="#8B5000"/>
<path d="M87.3023 76.537C87.004 97.4288 87.9347 118.225 90.1181 138.998C91.001 147.362 104.209 147.457 103.314 138.998C101.131 118.225 100.2 97.4288 100.498 76.537C100.618 68.0418 87.4216 68.0299 87.3023 76.537Z" fill="#8B5000"/>
<path d="M36.1399 193.071C40.5306 222.147 43.7282 251.725 49.4195 280.587C51.1018 289.13 53.9414 298.114 61.1838 303.579C69.6789 309.986 80.6438 308.041 90.5349 307.242C104.053 306.144 117.571 304.82 131.03 303.126C140.682 301.909 151.468 300.656 158.687 293.342C166.025 285.909 165.834 274.657 166.204 264.981C166.848 248.563 166.43 232.122 164.975 215.752C163.245 196.185 162.827 169.136 142.043 159.711C133.846 155.988 124.384 155.881 115.555 155.714C104.542 155.511 89.652 153.697 79.2359 158.016C70.4545 161.667 70.359 168.945 70.4067 177.441C70.4783 192.88 71.3493 208.367 71.8146 223.794C72.101 233.088 70.9794 244.531 75.5969 253.085C80.0711 261.378 89.5924 266.21 98.004 269.479C106.678 272.844 116.987 274.729 124.504 267.856C132.008 260.996 131.65 248.182 132.247 238.911C132.879 228.877 134.943 215.382 125.375 208.784C116.891 202.938 106.451 207.746 98.7795 212.662C91.6446 217.232 98.2665 228.662 105.437 224.056C112.62 219.463 117.488 218.484 119.468 229.223C120.411 234.317 118.967 241.023 118.49 246.153C117.989 251.427 118.586 258.276 111.272 259.433C107.036 260.113 100.915 256.617 97.4074 254.78C87.0271 249.363 85.5954 242.192 85.2255 231.108C84.8795 220.537 84.5812 209.965 84.259 199.394C84.0323 192.104 79.8444 172.322 88.268 169.47C95.8921 166.881 107.621 168.766 115.543 168.91C126.878 169.124 139.036 168.91 145.181 180.244C149.882 188.919 150.287 201.077 151.266 210.586C153.413 231.573 156.933 257.93 150.967 278.38C147.28 291.003 130.314 290.073 119.111 291.302C109.589 292.352 100.056 293.258 90.5111 294.034C78.1621 295.036 67.3165 296.551 63.2479 282.102C60.6946 273.059 59.9906 263.227 58.5827 253.956C55.3374 232.492 52.0921 211.027 48.8468 189.563C47.582 181.187 34.8632 184.743 36.116 193.071H36.1399Z" fill="#8B5000"/>
<path d="M41.6646 357.102C81.1455 355.062 120.662 353.619 160.191 352.771C168.674 352.592 168.698 339.384 160.191 339.575C120.662 340.422 81.1574 341.866 41.6646 343.906C33.2172 344.348 33.1575 357.544 41.6646 357.102Z" fill="#8B5000"/>
<path d="M47.0572 390.618C74.9527 383.973 103.218 381.169 131.865 382.087C140.36 382.362 140.349 369.166 131.865 368.891C102.049 367.925 72.5545 370.979 43.5494 377.888C35.2929 379.856 38.7888 392.587 47.0572 390.618Z" fill="#8B5000"/>
<path d="M53.5847 408.742C60.5526 436.685 54.2051 465.905 62.3185 493.729C64.6928 501.866 77.4355 498.406 75.0492 490.221C66.9717 462.504 73.2953 433.213 66.3155 405.234C64.2633 397.001 51.5206 400.485 53.5847 408.742Z" fill="#8B5000"/>
<path d="M95.6295 415.853C97.3953 430.648 98.1947 445.478 97.6339 460.369C97.1089 474.388 95.0568 487.978 97.801 501.902C99.4356 510.23 112.166 506.71 110.532 498.394C107.752 484.231 110.711 469.699 110.985 455.417C111.236 442.173 110.4 429.001 108.837 415.853C107.847 407.525 94.6272 407.417 95.6414 415.853H95.6295Z" fill="#8B5000"/>
<path d="M37.6191 511.316C37.7504 521.779 37.8816 532.255 38.0129 542.731C38.0964 548.983 36.7482 557.955 40.9957 563.432C48.9301 573.645 74.3677 570.483 85.3565 570.698C127.236 571.521 169.007 566.796 210.898 568.443C219.393 568.777 219.382 555.569 210.898 555.247C177.538 553.934 144.274 556.571 110.949 557.383C95.188 557.764 78.0068 558.993 62.3886 556.404C57.0434 555.521 53.3447 555.963 51.3163 550.594C50.1829 547.587 51.1851 540.488 51.1493 537.505C51.0419 528.783 50.9345 520.049 50.8272 511.327C50.7198 502.844 37.5237 502.82 37.6311 511.327L37.6191 511.316Z" fill="#8B5000"/>
<path d="M146.912 437.497C148.737 469.282 149.465 501.091 149.083 532.924C148.988 541.419 162.184 541.431 162.279 532.924C162.661 501.091 161.933 469.282 160.108 437.497C159.619 429.049 146.423 428.99 146.912 437.497Z" fill="#8B5000"/>
<path d="M116.139 526.039C139.227 528.318 162.338 529.177 185.532 528.64C194.015 528.449 194.039 515.241 185.532 515.444C162.338 515.981 139.238 515.11 116.139 512.843C107.692 512.007 107.752 525.215 116.139 526.039Z" fill="#8B5000"/>
<path d="M31.1294 689.821C37.1905 664.479 45.6141 639.983 56.6148 616.359C53.1547 616.801 49.7065 617.254 46.2464 617.696C59.4902 632.383 67.3172 650.388 77.3873 667.187C83.5319 677.436 95.3798 698.912 109.339 698.912C124.218 698.912 123.955 673.797 127.189 664.097C134.276 642.895 146.136 623.96 161.444 607.745C157.769 606.778 154.094 605.8 150.407 604.834C155.931 619.939 161.456 635.044 166.968 650.149C171.418 662.319 175.069 675.527 181.691 686.766C185.808 693.758 192.716 703.005 202.142 699.939C209.921 697.409 211.794 688.52 213.071 681.54C215.636 667.414 218.917 653.681 224.358 640.341C225.992 636.32 230.204 622.48 233.545 620.356C235.06 619.39 240.907 631.56 242.482 634.913C253.411 658 259.651 682.698 277.428 701.895C281.736 706.548 288.035 702.444 288.692 697.23C292.188 669.442 308.426 645.353 332.337 631.035C329.032 629.138 325.715 627.241 322.41 625.332C323.078 638.886 334.448 720.926 362.093 703.733C368.286 699.879 370.457 690.584 373.762 684.654C379.275 674.751 385.777 665.433 393.27 656.926C398.747 650.71 411.43 633.612 419.424 643.599C424.506 649.946 426.928 662.188 430.52 669.609C436.223 681.409 447.331 706.035 461.219 710.545C477.649 715.891 478.114 693.615 480.417 683.223C482.755 672.651 485.607 662.021 490.487 652.309C491.799 649.696 493.171 643.969 496.989 644.947C497.896 645.174 501.678 659.193 502.347 660.839C509.207 677.579 519.504 692.279 532.378 704.914C538.451 710.868 547.793 701.537 541.708 695.584C525.458 679.631 517.38 662.438 509.708 641.439C506.32 632.18 498.397 622.886 488.47 631.25C477.1 640.831 471.934 661.818 468.629 675.503C467.447 680.407 466.469 685.358 465.526 690.322C464.238 697.063 466.051 697.588 460.742 693.161C453.428 687.053 448.059 675.157 443.859 666.912C439.063 657.511 435.495 647.703 431.331 638.039C429.148 632.956 427.143 628.255 421.774 625.845C408.292 619.808 394.881 635.748 386.911 644.303C380.468 651.223 374.55 658.728 369.312 666.59C366.842 670.301 364.504 674.107 362.344 677.997C361.879 678.832 356.963 689.797 356.331 689.94C349.017 691.503 342.144 664.061 340.844 659.336C337.789 648.192 336.155 636.881 335.582 625.344C335.343 620.464 330.129 616.968 325.655 619.64C297.378 636.571 279.564 664.646 275.472 697.23C279.23 695.679 282.989 694.116 286.735 692.565C269.458 673.904 263.946 648.717 252.993 626.429C249.855 620.034 245.643 608.699 237.971 606.385C229.011 603.664 223.403 612.386 219.848 618.925C214.216 629.269 209.79 640.473 206.33 651.712C204.337 658.167 202.702 664.741 201.438 671.387C200.793 674.775 200.507 678.307 199.731 681.66C198.86 685.418 199.6 686.492 196.689 685.156C192.083 683.032 188.874 671.434 187.18 667.115C184.531 660.362 182.18 653.478 179.687 646.665C174.163 631.56 168.638 616.455 163.126 601.35C161.503 596.899 155.741 594.573 152.09 598.438C141.005 610.167 131.424 623.16 124.087 637.561C120.627 644.35 117.62 651.414 115.102 658.608C113.706 662.605 112.465 666.662 111.404 670.766C110.676 673.558 110.21 680.813 108.719 683.187C108.528 684.094 108.325 685.012 108.134 685.919C105.987 683.449 103.791 681.039 101.548 678.665C98.4819 675.038 95.6184 671.291 92.9935 667.342C88.5312 660.649 84.7251 653.537 80.8474 646.498C73.438 633.004 65.9093 619.879 55.5529 608.389C52.8922 605.43 46.9384 605.955 45.1845 609.725C33.7066 634.388 24.6984 659.885 18.3628 686.349C16.3822 694.605 29.113 698.125 31.0936 689.856L31.1294 689.821Z" fill="#8B5000"/>
<path d="M185.676 55.0005C188.301 102.094 190.938 149.199 193.562 196.292C193.908 202.484 202.606 205.717 205.864 199.621C208.942 193.858 237.136 195.456 243.447 195.075C257.395 194.239 271.355 193.679 285.315 193.38C296.972 193.142 310.621 195.194 322.027 193.07C329.89 191.615 332.133 186.222 334.245 178.955C341.01 155.725 341.702 129.87 343.754 105.888C344.804 93.6939 345.95 81.4404 346.355 69.1988C346.642 60.7753 347.692 48.0684 343.528 40.2533C340.354 34.2996 334.806 33.7388 328.697 33.3331C315.656 32.4741 302.484 32.1877 289.407 32.2832C277.177 32.3667 264.972 33.0349 252.849 34.6456C242.684 35.9938 229.524 37.008 220.372 41.9595C214.538 45.1213 213.75 48.7485 213.882 55.2272C214.132 68.9602 215.755 82.8125 216.697 96.5216C217.568 109.24 217.306 122.639 219.334 135.227C220.217 140.739 222.114 145.202 228.08 146.275C232.28 147.039 237.553 144.844 241.67 144.164C249.628 142.839 257.682 142.147 265.747 141.944C274.827 141.718 289.085 145.882 297.329 142.255C306.183 138.353 302.949 124.823 302.52 117.282C301.696 102.976 299.99 88.7543 297.783 74.6037C297.21 70.9408 292.819 69.3181 289.658 69.9982C276.044 72.8975 262.394 74.8185 248.494 75.7491C240.059 76.3099 239.999 89.5179 248.494 88.9452C263.552 87.943 278.394 85.8789 293.165 82.729C290.457 81.1898 287.749 79.6507 285.04 78.1235C287.343 92.8706 287.629 107.713 289.574 122.437C290.564 129.941 293.106 129.082 286.961 129.428C280.793 129.774 274.314 128.617 268.098 128.689C258.111 128.808 248.017 131.457 238.15 131.433C235.012 133.497 233.031 133.044 232.184 130.061C231.946 126.624 231.719 123.176 231.48 119.74C231.134 114.574 230.776 109.419 230.43 104.253C229.488 90.4844 228.557 76.7275 227.615 62.9587C227.543 61.9803 227.901 51.087 226.087 53.7954C227.949 51.0035 241.717 49.7745 245.01 49.1541C269.315 44.5844 294.311 45.1094 318.913 46.0997C322.505 46.2429 329.52 45.1332 332.086 47.5911C334.937 50.3234 333.314 65.1899 333.171 69.1869C332.766 80.6052 331.74 92.0235 330.785 103.394C329.819 114.968 328.697 126.529 327.444 138.079C326.609 145.703 325.857 153.375 324.616 160.939C323.877 165.449 323.638 174.123 320.452 177.715C315.298 183.525 291.447 180.017 282.714 180.22C270.496 180.506 258.278 180.996 246.072 181.7C234.034 182.392 221.446 182.559 209.515 184.432C202.893 185.47 197.786 186.747 194.481 192.939C198.586 194.049 202.678 195.158 206.782 196.268C204.157 149.175 201.521 102.07 198.896 54.9766C198.418 46.5292 185.222 46.4696 185.7 54.9766L185.676 55.0005Z" fill="#8B5000"/>
<path d="M368.392 110.207C399.283 111.305 430.101 113.464 460.848 116.662C469.284 117.545 469.224 104.337 460.848 103.466C430.101 100.256 399.283 98.1085 368.392 97.0108C359.897 96.7126 359.909 109.909 368.392 110.207Z" fill="#8B5000"/>
<path d="M383.511 77.1816C410.607 81.6916 437.87 84.6506 465.313 85.9392C473.808 86.3448 473.784 73.1368 465.313 72.7431C439.04 71.5022 412.97 68.7699 387.019 64.4508C378.703 63.0668 375.135 75.7856 383.511 77.1816Z" fill="#8B5000"/>
<path d="M482.075 58.1744L492.276 152.969C493.171 161.333 506.391 161.416 505.472 152.969C502.072 121.375 498.672 89.7686 495.271 58.1744C494.376 49.8105 481.156 49.727 482.075 58.1744Z" fill="#8B5000"/>
<path d="M512.071 39.7288C512.584 73.8167 514.159 107.869 516.796 141.861C517.452 150.273 530.66 150.344 529.992 141.861C527.355 107.869 525.78 73.8286 525.267 39.7288C525.136 31.2456 511.94 31.2217 512.071 39.7288Z" fill="#8B5000"/>
<path d="M586.201 149.843C589.733 136.897 593.252 123.952 596.784 111.006C598.55 104.528 600.316 98.0608 602.082 91.5821C603.43 86.6186 604.337 76.99 609.396 73.9713C606.162 72.6589 602.929 71.3465 599.695 70.0221C605.112 84.7334 610.469 99.4806 615.958 114.168C619.561 123.797 623.129 135.657 631.433 142.231C633.175 143.603 635.549 144.844 637.852 143.925C649.449 139.296 650.821 123.558 654.448 112.76C656.703 106.055 667.501 62.1235 678.407 66.8841C680.852 67.9579 683.943 83.8744 684.909 86.7379C687.307 93.8848 689.849 100.984 692.832 107.916C698.535 121.148 705.908 133.044 716.217 143.149C722.29 149.103 731.632 139.773 725.547 133.819C711.254 119.812 703.904 101.891 697.628 83.2301C694.192 73.0169 692.163 53.0557 679.146 50.6575C665.64 48.1638 657.622 65.8222 653.494 75.6179C650.105 83.6835 647.492 92.0593 644.712 100.34C643.221 104.79 641.718 109.24 640.226 113.703C639.415 116.101 636.408 130.371 634.344 131.194C636.48 131.755 638.627 132.328 640.763 132.888C631.886 125.861 628.832 111.054 625.073 100.841C620.862 89.3986 616.638 77.9564 612.426 66.5023C610.982 62.5888 606.651 60.2264 602.726 62.553C592.25 68.8051 590.974 82.0608 588.027 92.9064C583.17 110.708 578.326 128.51 573.47 146.311C571.239 154.52 583.97 158.016 586.201 149.819V149.843Z" fill="#8B5000"/>
<path d="M724.008 51.1949C731.238 89.7213 735.796 128.57 737.729 167.717C738.147 176.176 751.355 176.224 750.925 167.717C748.921 127.4 744.172 87.3588 736.727 47.6871C735.164 39.347 722.433 42.8787 723.996 51.1949H724.008Z" fill="#8B5000"/>
<path d="M762.974 -129.9C766.757 -83.8566 768.129 -37.7181 767.079 8.46824C766.888 16.9634 780.084 16.9634 780.275 8.46824C781.325 -37.7181 779.965 -83.8566 776.171 -129.9C775.478 -138.311 762.27 -138.383 762.974 -129.9Z" fill="#8B5000"/>
<path d="M1004.72 630.009C1020.42 630.152 1033.22 617.207 1029.64 601.075C1025.69 583.31 1003.46 572.404 987.095 570.197C969.508 567.823 953.914 575.351 951.229 594.239C948.211 615.476 963.053 626.847 981.905 631.297C990.161 633.242 993.693 620.523 985.413 618.567C976.44 616.455 966.263 613.508 964.282 603.127C961.669 589.43 972.873 581.639 985.317 583.333C993.824 584.491 1001.58 587.796 1008.27 593.153C1016.76 599.942 1022.7 616.98 1004.72 616.813C996.222 616.741 996.21 629.937 1004.72 630.009Z" fill="#8B5000"/>
<path d="M624.032 669.177C639.734 669.32 652.536 656.374 648.957 640.243C645.007 622.477 622.779 611.572 606.409 609.365C588.823 606.991 573.228 614.519 570.544 633.407C567.525 654.644 582.368 666.015 601.219 670.465C609.476 672.41 613.007 659.691 604.727 657.735C595.755 655.623 585.577 652.676 583.597 642.295C580.984 628.598 592.187 620.807 604.632 622.501C613.139 623.659 620.894 626.964 627.588 632.321C636.071 639.11 642.013 656.148 624.032 655.981C615.537 655.909 615.525 669.105 624.032 669.177Z" fill="#8B5000"/>
<path d="M995.053 568.622C995.352 547.73 994.421 526.934 992.238 506.161C991.355 497.797 978.147 497.702 979.042 506.161C981.225 526.934 982.156 547.73 981.857 568.622C981.738 577.117 994.934 577.129 995.053 568.622Z" fill="#8B5000"/>
<path d="M614.368 607.79C614.666 586.898 613.735 566.102 611.552 545.329C610.669 536.965 597.461 536.87 598.356 545.329C600.539 566.102 601.47 586.898 601.172 607.79C601.052 616.285 614.249 616.297 614.368 607.79Z" fill="#8B5000"/>
<path d="M1264.34 625.392C1236.45 632.037 1208.18 634.841 1179.53 633.923C1171.04 633.648 1171.05 646.844 1179.53 647.119C1209.35 648.085 1238.85 645.031 1267.85 638.122C1276.11 636.154 1272.61 623.423 1264.34 625.392Z" fill="#8B5000"/>
<path d="M1257.82 498.594C1250.85 470.65 1257.2 441.431 1249.08 413.607C1246.71 405.469 1233.97 408.93 1236.35 417.114C1244.43 444.831 1238.11 474.123 1245.09 502.102C1247.14 510.334 1259.88 506.85 1257.82 498.594Z" fill="#8B5000"/>
<path d="M862.706 640.292C855.738 612.349 862.086 583.129 853.972 555.305C851.598 547.168 838.855 550.628 841.242 558.813C849.319 586.529 842.996 615.821 849.975 643.8C852.028 652.032 864.77 648.548 862.706 640.292Z" fill="#8B5000"/>
<path d="M1215.77 532.184C1214 517.389 1213.21 502.558 1213.77 487.668C1214.29 473.649 1216.34 460.059 1213.6 446.135C1211.96 437.807 1199.23 441.327 1200.87 449.643C1203.65 463.805 1200.69 478.338 1200.42 492.62C1200.16 505.863 1201 519.036 1202.56 532.184C1203.55 540.512 1216.77 540.62 1215.76 532.184H1215.77Z" fill="#8B5000"/>
<path d="M820.659 673.882C818.894 659.087 818.094 644.257 818.655 629.366C819.18 615.347 821.232 601.757 818.488 587.833C816.853 579.505 804.122 583.025 805.757 591.341C808.537 605.504 805.578 620.036 805.304 634.318C805.053 647.562 805.888 660.734 807.451 673.882C808.442 682.21 821.662 682.318 820.647 673.882H820.659Z" fill="#8B5000"/>
<path d="M1273.77 436.72C1273.64 426.257 1273.51 415.781 1273.38 405.305C1273.29 399.053 1274.64 390.081 1270.39 384.604C1262.46 374.391 1237.02 377.553 1226.03 377.338C1184.15 376.515 1142.38 381.24 1100.49 379.593C1091.99 379.259 1092.01 392.467 1100.49 392.789C1133.85 394.102 1167.11 391.465 1200.44 390.653C1216.2 390.272 1233.38 389.043 1249 391.632C1254.34 392.515 1258.04 392.073 1260.07 397.442C1261.21 400.449 1260.2 407.548 1260.24 410.531C1260.35 419.253 1260.45 427.987 1260.56 436.708C1260.67 445.192 1273.86 445.215 1273.76 436.708L1273.77 436.72Z" fill="#8B5000"/>
<path d="M878.658 578.42C878.527 567.956 878.395 557.48 878.264 547.004C878.181 540.752 879.529 531.78 875.281 526.303C867.347 516.09 841.909 519.252 830.92 519.037C789.041 518.214 747.27 522.939 705.379 521.292C696.883 520.958 696.895 534.166 705.379 534.488C738.739 535.801 772.003 533.164 805.328 532.353C821.089 531.971 838.27 530.742 853.888 533.331C859.233 534.214 862.932 533.772 864.961 539.142C866.094 542.148 865.092 549.247 865.128 552.23C865.235 560.952 865.342 569.686 865.45 578.408C865.557 586.891 878.753 586.915 878.646 578.408L878.658 578.42Z" fill="#8B5000"/>
<path d="M1167.87 510.528C1166.04 478.743 1165.32 446.934 1165.7 415.101C1165.79 406.606 1152.6 406.594 1152.5 415.101C1152.12 446.934 1152.85 478.743 1154.67 510.528C1155.16 518.976 1168.36 519.035 1167.87 510.528Z" fill="#8B5000"/>
<path d="M772.759 652.227C770.934 620.442 770.206 588.633 770.588 556.8C770.683 548.305 757.487 548.293 757.392 556.8C757.01 588.633 757.738 620.442 759.563 652.227C760.052 660.674 773.248 660.734 772.759 652.227Z" fill="#8B5000"/>
<path d="M1194.76 513.141C1171.67 510.862 1148.56 510.003 1125.37 510.539C1116.88 510.73 1116.86 523.938 1125.37 523.736C1148.56 523.199 1171.66 524.07 1194.76 526.337C1203.21 527.172 1203.15 513.964 1194.76 513.141Z" fill="#8B5000"/>
<path d="M728.363 233.983C722.302 259.325 713.879 283.82 702.878 307.444C706.338 307.003 709.786 306.55 713.246 306.108C700.002 291.421 692.175 273.416 682.105 256.617C675.961 246.368 664.113 224.891 650.153 224.891C635.275 224.891 635.537 250.007 632.304 259.707C625.217 280.909 613.357 299.844 598.049 316.059C601.724 317.025 605.399 318.004 609.085 318.97C603.561 303.865 598.037 288.76 592.525 273.655C588.074 261.485 584.423 248.277 577.801 237.038C573.685 230.046 566.777 220.799 557.351 223.865C549.572 226.395 547.699 235.284 546.422 242.263C543.857 256.39 540.576 270.123 535.135 283.462C533.5 287.483 529.289 301.324 525.948 303.447C524.432 304.414 518.586 292.244 517.011 288.891C506.082 265.804 499.842 241.106 482.064 221.909C477.757 217.255 471.457 221.36 470.801 226.574C467.305 254.362 451.066 278.451 427.156 292.769C430.461 294.666 433.778 296.563 437.083 298.472C436.415 284.918 425.044 202.878 397.399 220.071C391.207 223.925 389.035 233.219 385.73 239.149C380.218 249.052 373.715 258.371 366.223 266.878C360.746 273.094 348.063 290.192 340.069 280.205C334.986 273.858 332.564 261.616 328.973 254.195C323.27 242.395 312.162 217.768 298.273 213.258C281.844 207.913 281.379 230.189 279.076 240.581C276.737 251.152 273.886 261.783 269.006 271.495C267.693 274.108 266.321 279.835 262.503 278.857C261.596 278.63 257.814 264.611 257.146 262.964C250.286 246.225 239.989 231.525 227.115 218.89C221.042 212.936 211.7 222.267 217.784 228.22C234.035 244.172 242.113 261.366 249.784 282.365C253.173 291.624 261.095 300.918 271.022 292.554C282.393 282.973 287.559 261.986 290.864 248.301C292.045 243.397 293.024 238.445 293.966 233.482C295.255 226.741 293.441 226.216 298.751 230.642C306.065 236.751 311.434 248.647 315.634 256.891C320.43 266.293 323.997 276.101 328.162 285.765C330.345 290.848 332.349 295.549 337.719 297.959C351.201 303.996 364.612 288.056 372.582 279.501C379.025 272.581 384.943 265.076 390.181 257.213C392.651 253.503 394.989 249.697 397.149 245.807C397.614 244.972 402.53 234.007 403.162 233.864C410.476 232.301 417.348 259.743 418.649 264.468C421.703 275.612 423.338 286.923 423.911 298.46C424.149 303.34 429.363 306.836 433.838 304.163C462.115 287.233 479.928 259.158 484.021 226.574C480.263 228.125 476.504 229.688 472.758 231.239C490.034 249.9 495.547 275.087 506.5 297.374C509.638 303.77 513.849 315.104 521.521 317.419C530.482 320.139 536.089 311.418 539.645 304.879C545.277 294.535 549.703 283.331 553.163 272.092C555.156 265.637 556.79 259.063 558.055 252.417C558.699 249.029 558.986 245.497 559.761 242.144C560.632 238.386 559.892 237.312 562.804 238.648C567.409 240.772 570.619 252.369 572.313 256.688C574.962 263.442 577.312 270.326 579.806 277.139C585.33 292.244 590.854 307.349 596.367 322.454C597.989 326.905 603.752 329.231 607.403 325.365C618.487 313.637 628.068 300.644 635.406 286.242C638.866 279.454 641.873 272.39 644.39 265.196C645.786 261.199 647.027 257.142 648.089 253.037C648.817 250.246 649.282 242.991 650.774 240.617C650.965 239.71 651.167 238.791 651.358 237.885C653.506 240.354 655.701 242.765 657.944 245.139C661.011 248.766 663.874 252.512 666.499 256.462C670.962 263.155 674.768 270.266 678.645 277.306C686.055 290.8 693.583 303.925 703.94 315.415C706.6 318.374 712.554 317.849 714.308 314.078C725.786 289.416 734.794 263.919 741.13 237.455C743.11 229.199 730.38 225.679 728.399 233.947L728.363 233.983Z" fill="#8B5000"/>
<path d="M567.665 508.968C563.716 525.55 558.227 541.577 551.059 557.035C553.314 556.746 555.561 556.449 557.815 556.16C549.186 546.55 544.086 534.77 537.524 523.778C533.52 517.072 525.8 503.02 516.704 503.02C507.01 503.02 507.181 519.453 505.074 525.8C500.456 539.672 492.728 552.062 482.754 562.671C485.148 563.304 487.543 563.944 489.945 564.576C486.346 554.693 482.746 544.809 479.154 534.926C476.255 526.963 473.876 518.321 469.561 510.967C466.879 506.392 462.377 500.342 456.236 502.348C451.167 504.003 449.946 509.819 449.114 514.386C447.443 523.629 445.305 532.615 441.76 541.343C440.695 543.974 437.95 553.03 435.774 554.419C434.786 555.052 430.977 547.089 429.951 544.895C422.829 529.789 418.763 513.629 407.18 501.068C404.373 498.023 400.268 500.709 399.841 504.12C397.563 522.302 386.982 538.064 371.402 547.432C373.556 548.674 375.717 549.915 377.87 551.164C377.435 542.296 370.026 488.616 352.013 499.866C347.978 502.387 346.563 508.469 344.41 512.349C340.818 518.828 336.581 524.925 331.699 530.492C328.13 534.559 319.866 545.746 314.657 539.212C311.345 535.059 309.767 527.049 307.427 522.193C303.711 514.472 296.473 498.359 287.424 495.408C276.719 491.91 276.415 506.486 274.915 513.285C273.391 520.202 271.533 527.158 268.353 533.513C267.498 535.223 266.604 538.97 264.116 538.33C263.526 538.181 261.061 529.008 260.626 527.931C256.155 516.978 249.446 507.36 241.058 499.093C237.101 495.197 231.013 501.302 234.978 505.198C245.567 515.635 250.83 526.885 255.829 540.625C258.037 546.683 263.199 552.764 269.667 547.292C277.076 541.023 280.442 527.291 282.596 518.336C283.366 515.128 284.003 511.888 284.617 508.64C285.457 504.23 284.275 503.886 287.735 506.782C292.5 510.779 295.999 518.563 298.735 523.957C301.861 530.109 304.185 536.526 306.899 542.85C308.321 546.175 309.627 549.251 313.126 550.828C321.911 554.779 330.649 544.349 335.842 538.751C340.041 534.223 343.897 529.313 347.31 524.168C348.919 521.74 350.443 519.25 351.85 516.705C352.153 516.158 355.356 508.984 355.768 508.89C360.534 507.868 365.012 525.823 365.859 528.915C367.849 536.206 368.914 543.607 369.288 551.156C369.443 554.349 372.84 556.637 375.756 554.888C394.181 543.81 405.788 525.441 408.455 504.12C406.006 505.135 403.557 506.158 401.116 507.173C412.373 519.383 415.965 535.863 423.101 550.446C425.146 554.63 427.89 562.047 432.889 563.561C438.728 565.341 442.382 559.634 444.699 555.356C448.368 548.588 451.252 541.257 453.507 533.903C454.805 529.68 455.87 525.378 456.694 521.03C457.114 518.813 457.301 516.502 457.806 514.308C458.374 511.849 457.892 511.146 459.789 512.021C462.789 513.41 464.881 520.999 465.985 523.825C467.711 528.243 469.242 532.748 470.867 537.205C474.466 547.089 478.066 556.972 481.658 566.856C482.715 569.768 486.47 571.29 488.849 568.761C496.071 561.086 502.314 552.585 507.095 543.162C509.35 538.72 511.309 534.098 512.949 529.391C513.859 526.776 514.668 524.121 515.359 521.436C515.834 519.609 516.137 514.862 517.109 513.309C517.233 512.716 517.365 512.114 517.49 511.521C518.889 513.137 520.319 514.714 521.781 516.268C523.779 518.641 525.645 521.092 527.355 523.676C530.263 528.056 532.743 532.709 535.27 537.315C540.097 546.144 545.003 554.732 551.751 562.25C553.485 564.186 557.364 563.842 558.507 561.375C565.986 545.239 571.856 528.556 575.984 511.24C577.274 505.838 568.979 503.535 567.688 508.945L567.665 508.968Z" fill="#8B5000"/>
<path d="M1276.45 262.033C1115.67 262.869 954.88 263.716 794.093 264.551C785.597 264.599 785.586 277.795 794.093 277.747C954.88 276.912 1115.67 276.065 1276.45 275.229C1284.95 275.182 1284.96 261.986 1276.45 262.033Z" fill="#8B5000"/>
<path d="M1282.01 315.904C1121.22 316.74 960.432 317.587 799.645 318.422C791.15 318.47 791.138 331.666 799.645 331.618C960.432 330.783 1121.22 329.936 1282.01 329.101C1290.5 329.053 1290.51 315.857 1282.01 315.904Z" fill="#8B5000"/>
<path d="M1225.38 233.052C1227.31 232.193 1229.25 231.322 1231.19 230.463C1237.94 227.457 1233.44 218.878 1227.86 218.162C1196.24 214.141 1164.36 216.85 1132.64 218.091C1099.81 219.379 1066.96 220.334 1034.12 220.942C969.268 222.135 904.409 221.968 839.574 220.525C831.079 220.334 831.079 233.542 839.574 233.721C904.409 235.164 969.28 235.343 1034.12 234.138C1066.1 233.542 1098.09 232.635 1130.06 231.394C1162.62 230.129 1195.4 227.23 1227.86 231.358C1226.75 227.254 1225.64 223.161 1224.53 219.057C1222.6 219.916 1220.65 220.787 1218.72 221.646C1210.97 225.094 1217.68 236.477 1225.38 233.041V233.052Z" fill="#8B5000"/>
<path d="M1273.8 182.38C1270.6 164.519 1267.68 146.622 1265.07 128.665C1263.85 120.29 1251.14 123.857 1252.34 132.173C1254.95 150.13 1257.85 168.027 1261.07 185.888C1262.58 194.24 1275.3 190.697 1273.8 182.38Z" fill="#8B5000"/>
<path d="M870.418 428.088C867.208 410.227 864.297 392.33 861.684 374.373C860.467 365.998 847.748 369.565 848.953 377.881C851.566 395.838 854.466 413.735 857.687 431.596C859.191 439.948 871.909 436.405 870.418 428.088Z" fill="#8B5000"/>
<path d="M1241.27 191.579C1240.47 171.26 1238.6 151.072 1235.8 130.932C1234.65 122.556 1221.91 126.124 1223.07 134.44C1225.7 153.399 1227.31 172.453 1228.06 191.579C1228.39 200.05 1241.59 200.086 1241.26 191.579H1241.27Z" fill="#8B5000"/>
<path d="M837.881 437.288C837.082 416.969 835.208 396.781 832.416 376.641C831.259 368.265 818.528 371.833 819.686 380.149C822.311 399.108 823.921 418.162 824.673 437.288C825.007 445.759 838.203 445.795 837.869 437.288H837.881Z" fill="#8B5000"/>
<path d="M1180.29 147.529C1163.34 146.527 1146.47 146.849 1129.58 148.495C1121.2 149.307 1121.12 162.515 1129.58 161.691C1146.47 160.045 1163.34 159.723 1180.29 160.725C1188.77 161.226 1188.75 148.018 1180.29 147.529Z" fill="#8B5000"/>
<path d="M776.9 393.237C759.958 392.235 743.087 392.557 726.192 394.203C717.816 395.015 717.733 408.223 726.192 407.399C743.087 405.753 759.958 405.431 776.9 406.433C785.384 406.934 785.36 393.726 776.9 393.237Z" fill="#8B5000"/>
<path d="M1179.53 171.629C1161.9 172.942 1144.25 174.254 1126.62 175.555C1118.2 176.175 1118.14 189.383 1126.62 188.751C1144.25 187.438 1161.9 186.126 1179.53 184.826C1187.96 184.205 1188.02 170.997 1179.53 171.629Z" fill="#8B5000"/>
<path d="M776.148 417.338C758.514 418.651 740.867 419.963 723.233 421.264C714.809 421.884 714.749 435.092 723.233 434.46C740.867 433.147 758.514 431.835 776.148 430.535C784.572 429.914 784.631 416.706 776.148 417.338Z" fill="#8B5000"/>
<path d="M1112.14 194.585C1109.76 174.218 1106.71 153.971 1102.9 133.819C1101.33 125.479 1088.59 129.011 1090.17 137.327C1093.76 156.321 1096.7 175.388 1098.93 194.585C1099.89 202.925 1113.11 203.021 1112.12 194.585H1112.14Z" fill="#8B5000"/>
<path d="M708.749 440.294C706.374 419.927 703.32 399.68 699.514 379.528C697.939 371.188 685.208 374.72 686.783 383.036C690.374 402.03 693.309 421.097 695.541 440.294C696.507 448.634 709.727 448.73 708.737 440.294H708.749Z" fill="#8B5000"/>
<path d="M1085.31 199.036C1084.46 177.321 1081.89 155.845 1077.67 134.523C1076.02 126.195 1063.29 129.727 1064.94 138.031C1068.93 158.207 1071.3 178.49 1072.12 199.036C1072.45 207.507 1085.66 207.543 1085.31 199.036Z" fill="#8B5000"/>
<path d="M681.926 444.745C681.067 423.03 678.501 401.554 674.278 380.232C672.631 371.904 659.9 375.436 661.547 383.74C665.544 403.916 667.906 424.199 668.73 444.745C669.064 453.216 682.272 453.252 681.926 444.745Z" fill="#8B5000"/>
<path d="M1039.37 171.868C1015.76 171.009 992.153 170.162 968.552 169.303C960.057 168.993 960.069 182.201 968.552 182.499C992.153 183.358 1015.76 184.205 1039.37 185.065C1047.86 185.375 1047.85 172.167 1039.37 171.868Z" fill="#8B5000"/>
<path d="M635.978 417.577C612.378 416.718 588.766 415.871 565.166 415.012C556.671 414.702 556.683 427.91 565.166 428.208C588.766 429.067 612.378 429.914 635.978 430.774C644.474 431.084 644.462 417.876 635.978 417.577Z" fill="#8B5000"/>
<path d="M1036.87 141.217C1017.71 144.916 998.489 146.777 978.981 146.956C970.486 147.04 970.474 160.236 978.981 160.152C999.658 159.961 1020.08 157.861 1040.38 153.936C1048.71 152.325 1045.19 139.606 1036.87 141.205V141.217Z" fill="#8B5000"/>
<path d="M633.485 386.925C614.324 390.624 595.102 392.485 575.595 392.664C567.099 392.748 567.088 405.944 575.595 405.86C596.272 405.669 616.698 403.569 636.993 399.644C645.321 398.033 641.802 385.314 633.485 386.913V386.925Z" fill="#8B5000"/>
<path d="M948.64 187.63C943.772 168.218 938.916 148.805 934.048 129.393C931.984 121.16 919.253 124.644 921.317 132.901C926.185 152.313 931.041 171.726 935.909 191.138C937.973 199.37 950.704 195.887 948.64 187.63Z" fill="#8B5000"/>
<path d="M545.251 433.338C540.383 413.926 535.527 394.513 530.659 375.101C528.595 366.868 515.865 370.352 517.929 378.609C522.797 398.021 527.653 417.434 532.521 436.846C534.585 445.079 547.316 441.595 545.251 433.338Z" fill="#8B5000"/>
<path d="M910.281 196.793C909.517 178.192 907.763 159.734 905.186 141.312C904.017 132.936 891.298 136.504 892.455 144.82C894.865 162.072 896.357 179.397 897.073 196.793C897.419 205.252 910.627 205.3 910.269 196.793H910.281Z" fill="#8B5000"/>
<path d="M506.894 442.502C506.13 423.901 504.376 405.443 501.799 387.021C500.63 378.645 487.911 382.213 489.068 390.529C491.479 407.781 492.97 425.106 493.686 442.502C494.032 450.961 507.24 451.009 506.882 442.502H506.894Z" fill="#8B5000"/>
<path d="M864.167 184.266C844.289 183.872 824.399 183.49 804.522 183.096C796.027 182.929 796.027 196.125 804.522 196.292C824.399 196.686 844.289 197.068 864.167 197.462C872.662 197.629 872.662 184.433 864.167 184.266Z" fill="#8B5000"/>
<path d="M460.778 429.974C440.9 429.58 421.011 429.198 401.133 428.804C392.638 428.637 392.638 441.833 401.133 442C421.011 442.394 440.9 442.776 460.778 443.17C469.273 443.337 469.273 430.141 460.778 429.974Z" fill="#8B5000"/>
<path d="M876.539 146.932C855.623 150.022 834.612 151.526 813.47 151.669C804.974 151.729 804.963 164.925 813.47 164.865C835.817 164.722 857.95 162.92 880.047 159.663C888.422 158.422 884.867 145.703 876.539 146.932Z" fill="#8B5000"/>
<path d="M473.152 392.64C452.236 395.73 431.225 397.234 410.083 397.377C401.588 397.437 401.576 410.633 410.083 410.573C432.43 410.43 454.563 408.628 476.66 405.371C485.036 404.13 481.48 391.411 473.152 392.64Z" fill="#8B5000"/>
<path d="M1288.9 73.0644C1281.5 47.4716 1275.46 20.8885 1266.18 -4.08381C1263.81 -10.4671 1261.6 -17.7571 1254.44 -19.9287C1243.99 -23.1024 1228.94 -19.3559 1218.13 -18.7594C1200.66 -17.7929 1173.28 -22.47 1163.97 -3.58268C1154.16 16.2711 1154.42 45.0615 1157.18 66.3948C1159.89 87.3104 1170.13 91.5222 1189.86 92.3932C1203.16 92.9898 1216.51 92.4767 1229.73 90.9614C1236.78 90.1501 1246.29 90.2217 1251.65 84.769C1257.97 78.3261 1254.42 66.705 1253.71 58.9019C1252.41 44.6558 1251.43 30.3382 1249.8 16.1279C1249.12 10.2458 1248.24 4.12497 1241.63 2.40686C1239.15 1.76256 1237.42 2.59776 1235.07 2.75287C1227.21 3.24205 1219.92 1.20179 1212.16 1.1302C1194.06 0.975093 1180.26 19.0988 1181.89 36.8408C1183.84 58.3411 1220.83 50.9078 1233.55 46.7677C1241.59 44.1428 1238.16 31.4001 1230.04 34.0369C1223.21 36.2681 1204.45 42.186 1197.9 36.9362C1189.34 30.0757 1202.4 16.8796 1208.3 15.1376C1216.13 12.8349 1224.73 16.7603 1232.79 16.3069C1234.05 16.1518 1235.3 15.9728 1236.56 15.77C1239.42 14.7916 1239.52 15.7461 1236.83 18.6335C1237.5 23.6089 1237.75 28.7274 1238.21 33.7267C1239.06 42.9496 1239.9 52.1726 1240.74 61.4074C1240.96 63.8176 1243.23 71.8116 1241.89 73.9831C1239.56 77.7892 1233.91 77.2523 1229.73 77.7415C1216.7 79.2687 1178.37 85.6997 1171.44 71.7997C1167.95 64.8317 1168.97 52.1726 1169.04 44.4888C1169.13 34.5142 1170.21 24.5634 1172.29 14.8035C1173.17 10.7469 1173.75 6.03399 1175.85 2.37106C1179.38 -3.77359 1186.23 -3.34406 1192.37 -4.15539C1202.49 -5.47977 1213.08 -5.3008 1223.28 -5.86158C1230.63 -6.26724 1245.48 -9.72734 1250.83 -5.05024C1256.24 -0.313493 1257.85 13.1689 1259.82 19.9817C1265.28 38.8452 1270.72 57.6968 1276.17 76.5603C1278.52 84.7094 1291.26 81.2374 1288.9 73.0525V73.0644Z" fill="#8B5000"/>
<path d="M1142.57 83.1467C1132.39 56.2295 1130.93 29.1931 1129.51 0.808366C1129.17 -5.78968 1128.67 -12.865 1123.58 -17.6852C1116.19 -24.677 1107 -20.8709 1098.57 -18.5085C1084.99 -14.7024 1071.63 -13.4854 1057.63 -12.4951C1049.29 -11.8985 1040.31 -10.7531 1034.8 -3.68976C1029.5 3.08725 1030.11 11.821 1030.33 19.9343C1030.7 33.2259 1031.48 46.5174 1032.58 59.7732C1033.38 69.4853 1032.52 82.5263 1036.59 91.5344C1040.4 99.9699 1050.03 100.328 1058.16 101.151C1074.44 102.798 1104.27 103.609 1114.93 88.0147C1119.78 80.9155 1118.92 72.0505 1118.43 63.9133C1117.62 50.3354 1117.48 35.4809 1114.23 22.2132C1109.21 1.71515 1082.47 5.41387 1066.21 4.16108C1058.31 3.55258 1050.41 2.46682 1046.87 11.0335C1043.23 19.8389 1044.66 32.9992 1047.49 41.8642C1055.02 65.3928 1082.89 52.5189 1098.13 44.2385C1105.6 40.1819 1098.94 28.7755 1091.47 32.8441C1084.25 36.7695 1067.25 47.2214 1060.22 38.3564C1057.94 35.4928 1058.36 28.7874 1058.32 25.5182C1058.22 22.5831 1058.43 19.6718 1058.98 16.7606C1059.8 16.9873 1060.64 17.0708 1061.51 16.9873C1067.73 14.9351 1080.66 18.3713 1087.31 18.9679C1093.52 19.5287 1098.37 18.4787 1101.5 25.6972C1103.29 29.8135 1102.9 36.3996 1103.34 40.8023C1104.26 49.8224 1106.3 59.9999 1105.52 69.02C1104.92 76.1191 1103.77 82.6575 1096.29 85.1512C1091.46 86.7619 1085.98 87.4658 1080.99 87.9789C1073.44 88.7544 1065.7 88.7425 1058.15 87.9312C1048.35 86.8693 1048.46 83.0274 1047.13 74.6516C1046.37 69.7955 1046.17 64.6531 1045.76 59.7493C1045.01 50.6337 1044.42 41.5062 1043.99 32.3787C1043.62 24.3847 1039.95 6.8337 1049.1 1.92991C1055.16 -1.31542 1066.86 0.414626 1073.47 -0.277393C1081.47 -1.12452 1089.45 -2.47276 1097.26 -4.47723C1102.54 -5.8374 1112.41 -10.956 1116.16 -2.78298C1117.37 -0.122284 1116.38 7.54959 1116.45 10.3177C1116.68 18.2639 1117.12 26.2222 1117.93 34.1327C1119.78 52.1371 1123.41 69.6881 1129.82 86.6426C1132.79 94.5173 1145.55 91.1049 1142.55 83.1348L1142.57 83.1467Z" fill="#8B5000"/>
<path d="M1015.67 88.6948C1012.38 64.1401 1009.07 39.5853 1005.78 15.0306C1004.92 8.65924 1004.6 0.927713 999.228 -3.51075C992.821 -8.82021 984.028 -4.83514 976.881 -3.43917C964.186 -0.957445 951.229 -0.0864536 938.319 -0.659159C928.953 -1.07676 917.057 -5.12149 908.013 -1.4347C892.168 5.02017 896.845 32.8202 898.432 45.6107C899.793 56.5756 902.071 67.3615 904.672 78.0759C906.414 85.2586 907.333 96.2712 914.146 100.948C921.245 105.828 932.687 102.869 940.598 102.38C951.944 101.676 964.472 102.356 975.616 100.053C993.788 96.2951 987.44 74.5204 986.402 61.0737C985.114 44.2505 987.929 23.1081 966.668 20.2685C948.222 17.8106 933.749 23.6928 930.575 43.2005C926.734 66.8485 955.333 57.5778 969.746 56.0983C978.11 55.2393 978.205 42.0313 969.746 42.9022C962.146 43.6778 953.591 43.5346 946.194 45.3243C941.612 44.4653 940.323 44.9783 942.328 46.8396C943.437 48.7248 943.879 48.1043 943.664 44.9664C943.974 40.3251 946.313 36.5786 950.656 33.7032C952.374 33.4407 954.092 33.1782 955.822 32.9276C960.607 32.164 963.411 33.4526 967.252 36.3281C972.669 40.3728 971.822 42.9619 972.287 49.1066C972.896 57.0767 973.516 65.0469 974.125 73.0289C974.435 77.014 976.034 81.5837 973.361 84.9245C970.438 88.5874 966.262 87.5971 961.442 87.8954C952.756 88.4323 944.07 88.9692 935.384 89.5061C930.933 89.7806 926.316 91.3436 922.689 88.3727C919.193 85.5091 919.074 81.3809 917.988 76.9901C916.019 68.9723 914.11 60.9067 912.726 52.7575C911.187 43.6539 910.197 34.3952 910.399 25.1484C910.459 22.4042 909.791 16.1641 911.235 13.8971C914.575 8.64731 921.854 11.1052 926.435 11.6182C940.991 13.2289 955.607 13.0142 970.116 11.0097C973.552 10.5325 976.965 9.74499 980.401 9.30353C982.99 8.30129 985.639 8.05074 988.323 8.55185C991.378 7.71666 992.63 8.83821 992.082 11.9165C995.375 17.9776 994.611 30.2073 995.554 37.1394C997.856 54.3325 1000.17 71.5137 1002.47 88.7067C1003.58 96.999 1016.8 97.1184 1015.67 88.7067V88.6948Z" fill="#8B5000"/>
<path d="M891.762 90.5089C880.535 72.1346 877.015 51.4457 872.433 30.7447C869.904 19.3264 867.816 -2.2932 853.892 -6.39758C845.552 -8.85545 835.757 -3.82041 827.941 -1.42221C818.993 1.322 809.794 3.68441 801.179 7.38313C784.989 14.3391 775.062 27.1534 773.236 44.8476C771.327 63.389 779.059 82.1808 787.494 98.3001C795.834 114.217 809.854 113.023 826.116 113.274C841.376 113.513 853.2 108.12 859.536 93.635C867.649 75.0817 860.216 55.1444 861.039 35.8633C861.23 31.2936 856.684 28.7283 852.687 29.5039C852.794 29.48 847.378 21.8678 846.483 21.1997C843.894 19.2787 840.887 18.6105 837.761 18.2645C829.409 17.3339 818.563 18.7776 811.846 24.1586C794.319 38.2138 813.242 57.4829 824.195 68.3882C830.22 74.3897 839.563 65.0593 833.525 59.0579C829.707 55.2518 820.687 48.3912 819.804 43.1414C818.038 32.7373 832.32 27.75 840.159 34.1094C846.089 38.9297 847.02 44.0124 856.195 42.2346C853.415 40.1109 850.623 37.9871 847.843 35.8752C847.27 49.2026 850.981 62.339 850.241 75.6186C849.883 82.0257 848.177 90.2703 843.357 95.0309C837.558 100.746 829.373 100.221 821.821 99.9466C813.326 99.6484 805.176 101.271 799.7 93.2651C795.965 87.8124 793.341 80.1406 791.085 74.0079C786.074 60.4658 782.984 44.0482 791.276 31.055C799.103 18.8014 816.392 15.9379 829.278 11.9886C834.957 10.2467 847.521 4.04235 852.711 9.07738C855.861 12.1437 856.744 21.5695 857.77 25.7336C863.783 50.2525 866.969 75.2487 880.38 97.1786C884.806 104.421 896.225 97.7871 891.774 90.5209L891.762 90.5089Z" fill="#8B5000"/>
<path d="M1064.46 401.547C1066.97 448.64 1067.67 495.781 1066.52 542.922C1066.32 551.417 1079.51 551.417 1079.72 542.922C1080.86 495.781 1080.17 448.64 1077.65 401.547C1077.2 393.1 1063.99 393.04 1064.46 401.547Z" fill="#8B5000"/>
<path d="M1040.82 406.821C1039.59 446.993 1040 487.154 1042.04 527.291C1042.47 535.751 1055.68 535.799 1055.23 527.291C1053.19 487.154 1052.79 446.993 1054.02 406.821C1054.28 398.325 1041.07 398.325 1040.82 406.821Z" fill="#8B5000"/>
<path d="M246.12 405.914C276.164 411.546 306.457 413.61 336.99 411.856C345.437 411.367 345.497 398.171 336.99 398.66C307.65 400.342 278.526 398.612 249.628 393.195C241.324 391.644 237.768 404.363 246.12 405.926V405.914Z" fill="#8B5000"/>
<path d="M215.231 439.084C243.138 436.614 271.058 435.958 299.037 437.127C307.532 437.485 307.52 424.277 299.037 423.931C271.046 422.762 243.126 423.406 215.231 425.888C206.831 426.627 206.76 439.835 215.231 439.084Z" fill="#8B5000"/>
</g>
</g>
</g>
<defs>
<clipPath id="clip0_1403_29020">
<rect width="1312" height="643" rx="60" fill="white"/>
</clipPath>
<clipPath id="clip1_1403_29020">
<rect width="1313" height="642" fill="white" transform="translate(-1 2)"/>
</clipPath>
</defs>
</svg>
