<svg width="84" height="84" viewBox="0 0 84 84" fill="none" xmlns="http://www.w3.org/2000/svg">
<path d="M76.895 64.155C76.895 65.415 76.615 66.71 76.02 67.97C75.425 69.23 74.655 70.42 73.64 71.54C71.925 73.43 70.035 74.795 67.9 75.67C65.8 76.545 63.525 77 61.075 77C57.505 77 53.69 76.16 49.665 74.445C45.64 72.73 41.615 70.42 37.625 67.515C33.6 64.575 29.785 61.32 26.145 57.715C22.54 54.075 19.285 50.26 16.38 46.27C13.51 42.28 11.2 38.29 9.52 34.335C7.84 30.345 7 26.53 7 22.89C7 20.51 7.42 18.235 8.26 16.135C9.1 14 10.43 12.04 12.285 10.29C14.525 8.085 16.975 7 19.565 7C20.545 7 21.525 7.21 22.4 7.63C23.31 8.05 24.115 8.68 24.745 9.59L32.865 21.035C33.495 21.91 33.95 22.715 34.265 23.485C34.58 24.22 34.755 24.955 34.755 25.62C34.755 26.46 34.51 27.3 34.02 28.105C33.565 28.91 32.9 29.75 32.06 30.59L29.4 33.355C29.015 33.74 28.84 34.195 28.84 34.755C28.84 35.035 28.875 35.28 28.945 35.56C29.05 35.84 29.155 36.05 29.225 36.26C29.855 37.415 30.94 38.92 32.48 40.74C34.055 42.56 35.735 44.415 37.555 46.27C39.445 48.125 41.265 49.84 43.12 51.415C44.94 52.955 46.445 54.005 47.635 54.635C47.81 54.705 48.02 54.81 48.265 54.915C48.545 55.02 48.825 55.055 49.14 55.055C49.735 55.055 50.19 54.845 50.575 54.46L53.235 51.835C54.11 50.96 54.95 50.295 55.755 49.875C56.56 49.385 57.365 49.14 58.24 49.14C58.905 49.14 59.605 49.28 60.375 49.595C61.145 49.91 61.95 50.365 62.825 50.96L74.41 59.185C75.32 59.815 75.95 60.55 76.335 61.425C76.685 62.3 76.895 63.175 76.895 64.155Z" stroke="#FFDBD0" stroke-width="1.5" stroke-miterlimit="10"/>
<path opacity="0.4" d="M64.75 31.5C64.75 29.4 63.105 26.18 60.655 23.555C58.415 21.14 55.44 19.25 52.5 19.25" stroke="#FFDBD0" stroke-width="1.5" stroke-linecap="round" stroke-linejoin="round"/>
<path opacity="0.4" d="M77 31.5C77 17.955 66.045 7 52.5 7" stroke="#FFDBD0" stroke-width="1.5" stroke-linecap="round" stroke-linejoin="round"/>
</svg>
