<svg width="72" height="60" viewBox="0 0 72 60" fill="none" xmlns="http://www.w3.org/2000/svg">
<g filter="url(#filter0_b_1403_30510)">
<rect width="72" height="60" rx="8" fill="#FFDAD6" fill-opacity="0.1"/>
<g clip-path="url(#clip0_1403_30510)">
<path d="M28 24.1433V36.9673L33.065 34.7973L39.065 37.7973L44 35.6803V22.8573L45.303 22.2993C45.3791 22.2666 45.4621 22.2534 45.5445 22.2608C45.627 22.2682 45.7063 22.2959 45.7754 22.3415C45.8445 22.3871 45.9012 22.4491 45.9404 22.5221C45.9796 22.595 46.0001 22.6765 46 22.7593V37.0003L39 40.0003L33 37.0003L26.697 39.7013C26.6209 39.7339 26.5379 39.7471 26.4555 39.7397C26.373 39.7323 26.2937 39.7046 26.2246 39.659C26.1555 39.6134 26.0988 39.5514 26.0596 39.4785C26.0204 39.4055 25.9999 39.324 26 39.2413V25.0003L28 24.1433ZM40.243 29.2433L36 33.4853L31.757 29.2433C30.918 28.4041 30.3466 27.335 30.1152 26.1711C29.8838 25.0073 30.0027 23.8009 30.4568 22.7046C30.911 21.6083 31.68 20.6713 32.6667 20.0121C33.6534 19.3528 34.8134 19.001 36 19.001C37.1866 19.001 38.3466 19.3528 39.3333 20.0121C40.32 20.6713 41.089 21.6083 41.5432 22.7046C41.9973 23.8009 42.1162 25.0073 41.8848 26.1711C41.6534 27.335 41.082 28.4041 40.243 29.2433V29.2433ZM36 30.6573L38.828 27.8283C39.3875 27.2689 39.7686 26.5562 39.9231 25.7802C40.0775 25.0043 39.9983 24.1999 39.6956 23.4689C39.3929 22.738 38.8802 22.1132 38.2224 21.6736C37.5646 21.234 36.7912 20.9994 36 20.9994C35.2088 20.9994 34.4354 21.234 33.7776 21.6736C33.1198 22.1132 32.6071 22.738 32.3044 23.4689C32.0017 24.1999 31.9225 25.0043 32.0769 25.7802C32.2314 26.5562 32.6125 27.2689 33.172 27.8283L36 30.6573Z" fill="#FFD3AB"/>
</g>
</g>
<defs>
<filter id="filter0_b_1403_30510" x="-44" y="-44" width="160" height="148" filterUnits="userSpaceOnUse" color-interpolation-filters="sRGB">
<feFlood flood-opacity="0" result="BackgroundImageFix"/>
<feGaussianBlur in="BackgroundImageFix" stdDeviation="22"/>
<feComposite in2="SourceAlpha" operator="in" result="effect1_backgroundBlur_1403_30510"/>
<feBlend mode="normal" in="SourceGraphic" in2="effect1_backgroundBlur_1403_30510" result="shape"/>
</filter>
<clipPath id="clip0_1403_30510">
<rect width="24" height="24" fill="white" transform="translate(24 18)"/>
</clipPath>
</defs>
</svg>
