<svg width="70" height="44" viewBox="0 0 70 44" fill="none" xmlns="http://www.w3.org/2000/svg">
<g clip-path="url(#clip0_1403_29001)">
<path d="M55.8742 3.11554L56.625 3.16609L53.9695 31.0631L53.6688 31.0126L53.568 33.8267L52.7165 33.7761L52.8173 30.962H52.7669L52.4662 33.6767L50.7631 33.4762L50.8135 33.0735L49.762 32.8729L49.7116 33.6262L48.7593 33.6767L48.6585 32.5207L48.0068 32.5713L47.6558 28.65L47.2056 28.7006L44.1504 3.16609L44.3503 3.11554L44.2008 1.70847L45.1531 1.60736L45.7544 2.96388L45.704 1.20462L46.6564 1.10352V1.4557L47.508 1.40515L48.0589 8.34107L48.4099 8.29052L50.4137 23.7716L51.8666 12.4629H51.7658L52.4679 2.2595H52.7685L52.8189 1.30404L53.6705 1.3546L53.6201 2.31006H53.9208L53.9712 1.40515L54.4213 1.4557L54.4717 1.15407L56.1748 1.50626L55.8742 3.11385V3.11554Z" fill="#D34D18"/>
<path d="M38.5351 3.01622L38.3352 2.96566V1.55859L27.1624 1.75912V3.2673H26.9121V5.4293L30.9197 5.5304V5.88259L30.2176 5.93315L30.619 11.7131L30.268 32.472L31.2707 32.5225L31.3211 32.8242H32.3239V32.5225L32.3742 31.4171H32.8748L33.0259 32.472L34.0287 32.3709L34.5292 5.58096L37.3342 5.68206V5.07879L38.5368 5.1799V3.92281L37.3342 3.62117H38.5368V3.0179L38.5351 3.01622ZM31.6654 28.5676H31.3295V16.4803H31.6654V28.5676Z" fill="#D34D18"/>
<path d="M43.4714 31.4159L43.3706 10.0538H42.5694L42.7189 8.84724L41.0158 8.69727L40.9654 8.89779L40.5153 8.94835V9.65272H40.2146V8.89948L39.363 8.95003V9.65441H39.1128L39.4638 17.4952H39.5142L39.0137 33.128L40.5673 33.1786V33.5308H42.3209V31.4699H42.3712L42.5207 33.6319L43.3723 33.5813L43.2211 31.4193H43.4714V31.4159ZM42.4216 28.9203H42.0857V21.6103H42.4216V28.9203Z" fill="#D34D18"/>
<path d="M39.7138 6.08171H40.5167V6.18282L42.6699 6.23337L42.8698 5.42789L42.3693 5.37902L42.7203 2.71486L43.2209 0.905046H42.5709L42.2198 1.15613V0.854492H40.0649L40.1152 0.955599H39.2637V5.83063L39.6634 5.88118L39.7138 6.08171Z" fill="#D34D18"/>
<path d="M69.2985 2.6643L68.9979 3.61976V2.46377H68.3462V1.45776L63.7877 1.50832L63.7373 0.854492L61.5336 0.955599L57.3262 1.00615L57.427 4.37469L57.4773 5.22904V5.63179L57.5277 6.53669L57.7276 10.0047L58.0786 33.3772H69.0499L69.3002 20.058L68.2488 20.0075V19.4042L67.246 19.4548V20.0075L67.1956 22.1695H66.6447L66.5439 20.1086L65.5412 20.3091L65.3413 29.557H61.7873L61.584 16.9406L64.2563 16.89L64.3067 16.3879L66.2231 16.2868L69.3002 16.0862L69.3506 13.7237V12.7682L69.401 12.015L69.4514 9.1503L70.0023 2.66599H69.3002L69.2985 2.6643ZM59.55 29.8233H59.2141V17.3838H59.55V29.8233ZM66.0417 13.0699H65.9914V13.1204H65.7881L65.1297 13.171L62.3936 13.4221V13.8737L61.5336 13.9242L61.6344 14.7786H61.5336L61.3841 5.12794H66.0434V13.0699H66.0417Z" fill="#D34D18"/>
<path d="M26.2386 33.4193L26.1882 18.6982V4.5736L26.1378 0.652344L21.7288 0.75345L19.374 0.804004L14.9146 0.905111V2.46384L17.4693 2.41329V2.51439L15.5663 2.76547L15.6671 4.07144H18.6736L18.7744 5.42795L21.6297 5.32684L21.6801 9.44863L14.666 10.153V33.0166L21.6801 32.4639L21.6297 31.5084L22.8827 31.4073L22.8323 33.7698L24.386 33.8204L24.4364 32.2128H24.6363V33.4193H26.2386ZM16.4464 30.0879H16.1105V13.7305H16.4464V30.0879ZM19.4748 28.3438L19.1237 28.3943H18.9726V28.4449C18.939 28.4449 18.9054 28.4617 18.8718 28.4954C18.8718 28.4617 18.8634 28.4449 18.8466 28.4449C18.8298 28.4449 18.8214 28.428 18.8214 28.3943V28.2444L18.7206 23.4216L18.6198 21.9168L18.5191 16.9912L18.4687 14.5781L18.4183 14.2259V13.8737L18.3679 13.5215C18.4351 13.4878 18.509 13.471 18.593 13.471C18.677 13.471 18.7509 13.4541 18.818 13.4204H19.0683L19.4697 13.3699L20.2709 13.2199L21.7238 13.0699L21.8246 28.0927L19.4697 28.3438H19.4748ZM25.1267 20.0514H25.4626V28.177H25.1267V20.0514Z" fill="#D34D18"/>
<path d="M8.4166 0.352188L7.81529 0.402742H7.46425L6.76217 0.453295L5.41007 0.503849L0 0.803798L0.0503887 2.9658L3.15601 2.76527V2.9658H1.75353V3.26743L0.851569 3.31799V5.47998L1.75353 5.42943L1.9534 34.0561L3.45667 34.0056V34.6088H5.61162L5.86189 5.62996L5.26058 5.57941L5.31097 5.22722L6.06176 5.17666L7.31476 5.12611L7.96646 5.07556H8.9188L8.86841 5.52717V5.67714L8.81803 5.7277V6.33097L8.76764 9.90003L8.56776 17.0382L8.26711 26.308L9.46972 26.4091V28.0167L11.6247 28.1178V27.5145L13.227 27.464L13.0759 8.29244H13.4773L13.5277 6.93592V5.32832L13.6285 0L8.41827 0.352188H8.4166ZM3.35085 32.002H3.01492V17.6903H3.35085V32.002ZM3.80771 5.62996V5.32832H3.8581L3.80771 5.62996ZM12.2613 24.9295H11.9253V19.1631H12.2613V24.9295ZM6.56229 1.93114L6.53878 1.5958L12.2713 1.18463L12.2948 1.51997L6.56229 1.93114Z" fill="#D34D18"/>
<path d="M42.3161 37.3506C42.7193 37.3506 43.0821 37.4062 43.4045 37.5174C43.727 37.6286 44.0008 37.787 44.2276 37.9926C44.4543 38.1982 44.629 38.4476 44.7533 38.7374C44.8776 39.0273 44.938 39.3542 44.938 39.7148C44.938 40.0754 44.8776 40.3888 44.7583 40.6736C44.6391 40.9584 44.4644 41.2011 44.2376 41.3999C44.0109 41.5988 43.7338 41.7521 43.4096 41.8599C43.0837 41.9678 42.7209 42.0217 42.3161 42.0217H41.1337V43.7119H39.6758V37.3506H42.3161ZM42.2221 40.6821C42.6 40.6821 42.8923 40.5995 43.0972 40.436C43.3021 40.2709 43.4045 40.0367 43.4045 39.7333C43.4045 39.43 43.3021 39.1941 43.0972 39.0256C42.8923 38.8588 42.6 38.7745 42.2221 38.7745H41.1337V40.6821H42.2221Z" fill="#FFD3AB"/>
<path d="M47.9922 37.3506H49.4501V42.3823H52.166V43.7119H47.9922V37.3506Z" fill="#FFD3AB"/>
<path d="M64.4632 37.3506L65.864 40.0754L67.2648 37.3506H68.978L66.593 41.6897V43.7119H65.1351V41.6897L62.75 37.3506H64.4632Z" fill="#FFD3AB"/>
<path d="M58.8961 37.3506H57.1073L54.7793 43.7119H56.2658L56.6722 42.5913L57.0888 41.4336L58.0075 38.9363L58.9162 41.4336L59.3227 42.5913L59.7392 43.7119H61.224L58.8961 37.3506Z" fill="#FFD3AB"/>
</g>
<defs>
<clipPath id="clip0_1403_29001">
<rect width="70" height="43.7118" fill="white"/>
</clipPath>
</defs>
</svg>
