<svg width="84" height="84" viewBox="0 0 84 84" fill="none" xmlns="http://www.w3.org/2000/svg">
<path d="M59.5 31.5C59.5 45.045 47.74 56 33.25 56L29.995 59.92L28.07 62.2301C26.425 64.1901 23.275 63.77 22.19 61.425L17.5 51.0999C11.13 46.6199 7 39.515 7 31.5C7 17.955 18.76 7 33.25 7C43.82 7 52.955 12.845 57.05 21.245C58.625 24.36 59.5 27.825 59.5 31.5Z" stroke="#AB3500" stroke-width="1.5" stroke-linecap="round" stroke-linejoin="round"/>
<path opacity="0.4" d="M76.9991 45.01C76.9991 53.025 72.8691 60.1302 66.4991 64.6102L61.8091 74.935C60.7241 77.28 57.5741 77.7351 55.9291 75.7401L50.7491 69.51C42.2791 69.51 34.7191 65.7651 29.9941 59.9201L33.2491 56.0001C47.7391 56.0001 59.4991 45.0451 59.4991 31.5001C59.4991 27.8251 58.6241 24.3601 57.0491 21.2451C68.4941 23.8701 76.9991 33.53 76.9991 45.01Z" stroke="#AB3500" stroke-width="1.5" stroke-linecap="round" stroke-linejoin="round"/>
<path opacity="0.4" d="M24.5 31.5H42" stroke="#AB3500" stroke-width="1.5" stroke-linecap="round" stroke-linejoin="round"/>
</svg>
