<svg width="20" height="21" viewBox="0 0 20 21" fill="none" xmlns="http://www.w3.org/2000/svg">
<path d="M10.0001 8.212C9.33704 8.212 8.70116 8.47539 8.23231 8.94423C7.76347 9.41307 7.50008 10.049 7.50008 10.712C7.50008 11.375 7.76347 12.0109 8.23231 12.4798C8.70116 12.9486 9.33704 13.212 10.0001 13.212C10.6631 13.212 11.299 12.9486 11.7678 12.4798C12.2367 12.0109 12.5001 11.375 12.5001 10.712C12.5001 10.049 12.2367 9.41307 11.7678 8.94423C11.299 8.47539 10.6631 8.212 10.0001 8.212ZM10.0001 6.54533C11.1052 6.54533 12.165 6.98432 12.9464 7.76572C13.7278 8.54712 14.1667 9.60693 14.1667 10.712C14.1667 11.8171 13.7278 12.8769 12.9464 13.6583C12.165 14.4397 11.1052 14.8787 10.0001 14.8787C8.89501 14.8787 7.83521 14.4397 7.0538 13.6583C6.2724 12.8769 5.83342 11.8171 5.83342 10.712C5.83342 9.60693 6.2724 8.54712 7.0538 7.76572C7.83521 6.98432 8.89501 6.54533 10.0001 6.54533ZM15.4167 6.337C15.4167 6.61326 15.307 6.87821 15.1117 7.07357C14.9163 7.26892 14.6513 7.37866 14.3751 7.37866C14.0988 7.37866 13.8339 7.26892 13.6385 7.07357C13.4432 6.87821 13.3334 6.61326 13.3334 6.337C13.3334 6.06073 13.4432 5.79578 13.6385 5.60043C13.8339 5.40508 14.0988 5.29533 14.3751 5.29533C14.6513 5.29533 14.9163 5.40508 15.1117 5.60043C15.307 5.79578 15.4167 6.06073 15.4167 6.337ZM10.0001 4.04533C7.93842 4.04533 7.60175 4.05116 6.64258 4.09366C5.98925 4.1245 5.55091 4.212 5.14425 4.37033C4.78258 4.51033 4.52175 4.67783 4.24425 4.95616C3.98342 5.20816 3.78288 5.51582 3.65758 5.85616C3.49925 6.2645 3.41175 6.702 3.38175 7.3545C3.33841 8.2745 3.33341 8.59616 3.33341 10.712C3.33341 12.7737 3.33925 13.1103 3.38175 14.0695C3.41258 14.722 3.50008 15.1612 3.65758 15.567C3.79925 15.9295 3.96591 16.1903 4.24258 16.467C4.52341 16.747 4.78425 16.9145 5.14258 17.0528C5.55425 17.212 5.99258 17.3003 6.64258 17.3303C7.56258 17.3737 7.88425 17.3787 10.0001 17.3787C12.0617 17.3787 12.3984 17.3728 13.3576 17.3303C14.0092 17.2995 14.4484 17.212 14.8551 17.0545C15.2159 16.9137 15.4784 16.7462 15.7551 16.4695C16.0359 16.1887 16.2034 15.9278 16.3417 15.5695C16.5001 15.1587 16.5884 14.7195 16.6184 14.0695C16.6617 13.1495 16.6667 12.8278 16.6667 10.712C16.6667 8.65033 16.6609 8.31366 16.6184 7.3545C16.5876 6.70283 16.5001 6.26283 16.3417 5.85616C16.2162 5.51616 16.016 5.20863 15.7559 4.95616C15.504 4.6952 15.1963 4.49463 14.8559 4.3695C14.4476 4.21116 14.0092 4.12366 13.3576 4.09366C12.4376 4.05033 12.1159 4.04533 10.0001 4.04533ZM10.0001 2.37866C12.2642 2.37866 12.5467 2.387 13.4351 2.42866C14.3226 2.47033 14.9267 2.6095 15.4584 2.81616C16.0084 3.02783 16.4717 3.3145 16.9351 3.777C17.3588 4.19358 17.6867 4.69749 17.8959 5.25366C18.1017 5.7845 18.2417 6.3895 18.2834 7.277C18.3226 8.16533 18.3334 8.44783 18.3334 10.712C18.3334 12.9762 18.3251 13.2587 18.2834 14.147C18.2417 15.0345 18.1017 15.6387 17.8959 16.1703C17.6873 16.7268 17.3594 17.2308 16.9351 17.647C16.5184 18.0706 16.0145 18.3985 15.4584 18.6078C14.9276 18.8137 14.3226 18.9537 13.4351 18.9953C12.5467 19.0345 12.2642 19.0453 10.0001 19.0453C7.73592 19.0453 7.45341 19.037 6.56508 18.9953C5.67758 18.9537 5.07341 18.8137 4.54175 18.6078C3.98535 18.3991 3.48135 18.0711 3.06508 17.647C2.64125 17.2305 2.31336 16.7266 2.10425 16.1703C1.89758 15.6395 1.75841 15.0345 1.71675 14.147C1.67758 13.2587 1.66675 12.9762 1.66675 10.712C1.66675 8.44783 1.67508 8.16533 1.71675 7.277C1.75841 6.38866 1.89758 5.78533 2.10425 5.25366C2.31278 4.69714 2.64075 4.1931 3.06508 3.777C3.48147 3.35302 3.98544 3.0251 4.54175 2.81616C5.07341 2.6095 5.67675 2.47033 6.56508 2.42866C7.45341 2.3895 7.73592 2.37866 10.0001 2.37866Z" fill="#E3E3E3"/>
</svg>
