<svg width="20" height="21" viewBox="0 0 20 21" fill="none" xmlns="http://www.w3.org/2000/svg">
<path d="M18.4683 5.42519C17.8321 5.7066 17.1574 5.89141 16.4666 5.97352C17.1947 5.53805 17.7397 4.8527 17.9999 4.04519C17.3166 4.45185 16.5674 4.73685 15.7866 4.89102C15.2621 4.32984 14.5669 3.95766 13.8091 3.83234C13.0512 3.70702 12.2732 3.8356 11.596 4.19806C10.9187 4.56053 10.3802 5.13659 10.0642 5.83668C9.74812 6.53677 9.67221 7.32167 9.84826 8.06935C8.46251 7.9999 7.10687 7.63979 5.86933 7.01241C4.63179 6.38502 3.54003 5.50439 2.66492 4.42769C2.35516 4.95973 2.19238 5.56454 2.19326 6.18019C2.19326 7.38852 2.80826 8.45602 3.74326 9.08102C3.18993 9.0636 2.64878 8.91417 2.16492 8.64519V8.68852C2.16509 9.49327 2.44356 10.2732 2.95313 10.8961C3.46269 11.5189 4.17199 11.9464 4.96076 12.106C4.4471 12.2452 3.90851 12.2657 3.38576 12.166C3.60814 12.8587 4.04159 13.4645 4.62542 13.8986C5.20924 14.3327 5.9142 14.5733 6.64159 14.5869C5.91866 15.1546 5.0909 15.5743 4.20566 15.822C3.32041 16.0697 2.39503 16.1404 1.48242 16.0302C3.0755 17.0547 4.93 17.5986 6.82409 17.5969C13.2349 17.5969 16.7408 12.286 16.7408 7.68019C16.7408 7.53019 16.7366 7.37852 16.7299 7.23019C17.4123 6.73699 18.0013 6.12604 18.4691 5.42602L18.4683 5.42519Z" fill="#E3E3E3"/>
</svg>
