<svg width="264" height="245" viewBox="0 0 264 245" fill="none" xmlns="http://www.w3.org/2000/svg">
<path d="M0.254218 -19.7841C10.3503 47.116 17.7029 115.169 30.7895 181.575C34.6578 201.23 41.1874 221.902 57.8405 234.475C77.3743 249.216 102.587 244.742 125.331 242.902C156.415 240.377 187.499 237.33 218.446 233.432C240.641 230.631 265.442 227.749 282.04 210.921C298.913 193.819 298.474 167.931 299.324 145.668C300.806 107.894 299.846 70.0657 296.498 32.4018C292.52 -12.6192 291.56 -74.8524 243.768 -96.5394C224.92 -105.104 203.164 -105.351 182.862 -105.736C157.54 -106.202 123.301 -110.375 99.3498 -100.438C79.1576 -92.0373 78.9381 -75.2916 79.0478 -55.7459C79.2125 -20.2233 81.2152 15.4091 82.2852 50.9043C82.9436 72.2893 80.3647 98.6156 90.9821 118.299C101.27 137.378 123.163 148.496 142.505 156.017C162.451 163.759 186.154 168.096 203.439 152.284C220.695 136.499 219.872 107.016 221.244 85.6858C222.698 62.5988 227.444 31.5508 205.441 16.37C185.935 2.91857 161.929 13.9817 144.289 25.2918C127.882 35.8059 143.109 62.1047 159.597 51.5083C176.113 40.9393 187.307 38.6883 191.861 63.3949C194.028 75.1169 190.709 90.5448 189.611 102.349C188.459 114.483 189.831 130.24 173.013 132.903C163.274 134.468 149.199 126.424 141.133 122.197C117.265 109.734 113.973 93.235 113.122 67.7323C112.327 43.41 111.641 19.0877 110.9 -5.2346C110.379 -22.0077 100.749 -67.5228 120.118 -74.0838C137.649 -80.0409 164.618 -75.7035 182.835 -75.374C208.898 -74.8799 236.855 -75.374 250.984 -49.2948C261.793 -29.3373 262.726 -1.36388 264.976 20.5152C269.914 68.803 278.007 129.444 264.29 176.496C255.812 205.54 216.799 203.399 191.038 206.227C169.145 208.643 147.224 210.729 125.276 212.513C96.8807 214.819 71.9421 218.306 62.5868 185.061C56.7157 164.253 55.097 141.633 51.8597 120.303C44.3973 70.9167 36.935 21.5309 29.4726 -27.855C26.5645 -47.1261 -2.68134 -38.9455 0.199347 -19.7841H0.254218Z" fill="#D34D18"/>
</svg>
