<svg width="149" height="153" viewBox="0 0 149 153" fill="none" xmlns="http://www.w3.org/2000/svg">
<path d="M47.8725 2.7943C18.4296 2.52582 -5.57657 26.8005 1.13532 57.0488C8.54078 90.3622 50.2217 110.811 80.9174 114.95C113.895 119.402 143.137 105.285 148.171 69.8685C153.831 30.0446 125.999 8.72314 90.6496 0.378013C75.1675 -3.26878 68.5451 20.5808 84.072 24.25C100.896 28.21 119.981 33.7361 123.695 53.2006C128.594 78.8848 107.586 93.4944 84.251 90.3174C68.299 88.1472 53.7566 81.9499 41.2053 71.9044C25.2981 59.1742 14.1564 27.2256 47.8501 27.5388C63.7797 27.6731 63.802 2.92854 47.8501 2.7943H47.8725Z" fill="#AB3500"/>
<path d="M66.0178 117.881C65.4584 157.056 67.2035 196.053 71.2978 235.004C72.9534 250.687 97.7203 250.866 96.0423 235.004C91.9481 196.053 90.203 157.056 90.7623 117.881C90.986 101.952 66.2415 101.929 66.0178 117.881Z" fill="#AB3500"/>
</svg>
